<mxfile host="www.draw.io" modified="2019-10-25T01:05:12.239Z" agent="Mozilla/5.0 (Windows NT 10.0; Win64; x64) AppleWebKit/537.36 (KHTML, like Gecko) Chrome/77.0.3865.120 Safari/537.36" etag="EkZcs8XIeZjoIs7szTUF" version="12.1.5" type="github" pages="1">
  <diagram name="Page-1" id="b98fa263-6416-c6ec-5b7d-78bf54ef71d0">
    <mxGraphModel dx="2336" dy="1338" grid="1" gridSize="10" guides="1" tooltips="1" connect="1" arrows="1" fold="1" page="1" pageScale="1.5" pageWidth="1654" pageHeight="1169" background="#ffffff" math="0" shadow="0">
      <root>
        <mxCell id="0" style=";html=1;"/>
        <mxCell id="1" style=";html=1;" parent="0"/>
        <mxCell id="JUZL8q4CHkx2MLNB7XF1-25" style="edgeStyle=orthogonalEdgeStyle;rounded=0;orthogonalLoop=1;jettySize=auto;html=1;exitX=1;exitY=0.5;exitDx=0;exitDy=0;endArrow=none;endFill=0;fillColor=#d5e8d4;strokeColor=#82b366;" parent="1" source="303ed1de8c2c98b4-2" target="JUZL8q4CHkx2MLNB7XF1-19" edge="1">
          <mxGeometry relative="1" as="geometry"/>
        </mxCell>
        <mxCell id="303ed1de8c2c98b4-2" value="TIMS" style="whiteSpace=wrap;html=1;rounded=1;shadow=1;strokeWidth=1;fontSize=16;align=center;fillColor=#f8cecc;strokeColor=#b85450;" parent="1" vertex="1">
          <mxGeometry x="1280" y="120" width="242" height="40" as="geometry"/>
        </mxCell>
        <mxCell id="303ed1de8c2c98b4-3" value="VRSA API" style="whiteSpace=wrap;html=1;rounded=1;shadow=1;strokeWidth=1;fontSize=16;align=center;fillColor=#f5f5f5;strokeColor=#666666;" parent="1" vertex="1">
          <mxGeometry x="922" y="200" width="600" height="40" as="geometry"/>
        </mxCell>
        <mxCell id="JUZL8q4CHkx2MLNB7XF1-45" style="edgeStyle=orthogonalEdgeStyle;rounded=0;orthogonalLoop=1;jettySize=auto;html=1;exitX=0.5;exitY=0;exitDx=0;exitDy=0;entryX=0.5;entryY=1;entryDx=0;entryDy=0;endArrow=none;endFill=0;" parent="1" source="303ed1de8c2c98b4-4" target="303ed1de8c2c98b4-3" edge="1">
          <mxGeometry relative="1" as="geometry">
            <Array as="points">
              <mxPoint x="1087" y="250"/>
              <mxPoint x="1222" y="250"/>
            </Array>
          </mxGeometry>
        </mxCell>
        <mxCell id="JUZL8q4CHkx2MLNB7XF1-47" style="edgeStyle=orthogonalEdgeStyle;rounded=0;orthogonalLoop=1;jettySize=auto;html=1;exitX=0.5;exitY=1;exitDx=0;exitDy=0;entryX=0.5;entryY=0;entryDx=0;entryDy=0;endArrow=none;endFill=0;" parent="1" source="303ed1de8c2c98b4-4" target="JUZL8q4CHkx2MLNB7XF1-11" edge="1">
          <mxGeometry relative="1" as="geometry">
            <Array as="points">
              <mxPoint x="1087" y="325"/>
              <mxPoint x="1228" y="325"/>
            </Array>
          </mxGeometry>
        </mxCell>
        <mxCell id="303ed1de8c2c98b4-4" value="CMDB" style="whiteSpace=wrap;html=1;rounded=1;shadow=1;strokeWidth=1;fontSize=16;align=center;fillColor=#f5f5f5;strokeColor=#666666;" parent="1" vertex="1">
          <mxGeometry x="967" y="265" width="240" height="40" as="geometry"/>
        </mxCell>
        <mxCell id="JUZL8q4CHkx2MLNB7XF1-31" style="edgeStyle=orthogonalEdgeStyle;rounded=0;orthogonalLoop=1;jettySize=auto;html=1;exitX=0.5;exitY=1;exitDx=0;exitDy=0;entryX=0;entryY=0.5;entryDx=0;entryDy=0;endArrow=none;endFill=0;" parent="1" source="303ed1de8c2c98b4-5" target="JUZL8q4CHkx2MLNB7XF1-28" edge="1">
          <mxGeometry relative="1" as="geometry"/>
        </mxCell>
        <mxCell id="303ed1de8c2c98b4-5" value="Linux" style="whiteSpace=wrap;html=1;rounded=1;shadow=1;strokeWidth=1;fontSize=16;align=center;fillColor=#f5f5f5;strokeColor=#666666;fontColor=#333333;" parent="1" vertex="1">
          <mxGeometry x="1228" y="610" width="125" height="40" as="geometry"/>
        </mxCell>
        <mxCell id="JUZL8q4CHkx2MLNB7XF1-30" style="edgeStyle=orthogonalEdgeStyle;rounded=0;orthogonalLoop=1;jettySize=auto;html=1;exitX=0.5;exitY=1;exitDx=0;exitDy=0;entryX=0.5;entryY=0;entryDx=0;entryDy=0;endArrow=none;endFill=0;" parent="1" source="303ed1de8c2c98b4-6" target="JUZL8q4CHkx2MLNB7XF1-28" edge="1">
          <mxGeometry relative="1" as="geometry"/>
        </mxCell>
        <mxCell id="303ed1de8c2c98b4-6" value="RedHat" style="whiteSpace=wrap;html=1;rounded=1;shadow=1;strokeWidth=1;fontSize=16;align=center;fillColor=#f5f5f5;strokeColor=#666666;" parent="1" vertex="1">
          <mxGeometry x="1395.5" y="610" width="130" height="40" as="geometry"/>
        </mxCell>
        <mxCell id="JUZL8q4CHkx2MLNB7XF1-36" style="edgeStyle=orthogonalEdgeStyle;rounded=0;orthogonalLoop=1;jettySize=auto;html=1;exitX=0.5;exitY=1;exitDx=0;exitDy=0;endArrow=none;endFill=0;" parent="1" source="303ed1de8c2c98b4-7" target="JUZL8q4CHkx2MLNB7XF1-35" edge="1">
          <mxGeometry relative="1" as="geometry">
            <Array as="points">
              <mxPoint x="894" y="570"/>
            </Array>
          </mxGeometry>
        </mxCell>
        <mxCell id="303ed1de8c2c98b4-7" value="Windows" style="whiteSpace=wrap;html=1;rounded=1;shadow=1;strokeWidth=1;fontSize=16;align=center;fillColor=#dae8fc;strokeColor=#6c8ebf;" parent="1" vertex="1">
          <mxGeometry x="637" y="520" width="510" height="50" as="geometry"/>
        </mxCell>
        <mxCell id="JUZL8q4CHkx2MLNB7XF1-63" style="edgeStyle=orthogonalEdgeStyle;rounded=0;orthogonalLoop=1;jettySize=auto;html=1;exitX=0.5;exitY=1;exitDx=0;exitDy=0;entryX=0.5;entryY=0;entryDx=0;entryDy=0;endArrow=none;endFill=0;" parent="1" source="303ed1de8c2c98b4-8" target="JUZL8q4CHkx2MLNB7XF1-28" edge="1">
          <mxGeometry relative="1" as="geometry"/>
        </mxCell>
        <mxCell id="303ed1de8c2c98b4-8" value="Ubuntu" style="whiteSpace=wrap;html=1;rounded=1;shadow=1;strokeWidth=1;fontSize=16;align=center;fillColor=#f5f5f5;strokeColor=#666666;" parent="1" vertex="1">
          <mxGeometry x="1568" y="610" width="133" height="40" as="geometry"/>
        </mxCell>
        <mxCell id="JUZL8q4CHkx2MLNB7XF1-24" style="edgeStyle=orthogonalEdgeStyle;rounded=0;orthogonalLoop=1;jettySize=auto;html=1;exitX=0;exitY=0.5;exitDx=0;exitDy=0;entryX=0.5;entryY=0;entryDx=0;entryDy=0;endArrow=none;endFill=0;fillColor=#d5e8d4;strokeColor=#82b366;" parent="1" source="303ed1de8c2c98b4-72" target="303ed1de8c2c98b4-7" edge="1">
          <mxGeometry relative="1" as="geometry"/>
        </mxCell>
        <mxCell id="303ed1de8c2c98b4-72" value="SIMS" style="whiteSpace=wrap;html=1;rounded=1;shadow=1;strokeWidth=1;fontSize=16;align=center;fillColor=#dae8fc;strokeColor=#6c8ebf;" parent="1" vertex="1">
          <mxGeometry x="922" y="120" width="242" height="40" as="geometry"/>
        </mxCell>
        <mxCell id="303ed1de8c2c98b4-77" style="edgeStyle=orthogonalEdgeStyle;html=1;startSize=6;endFill=0;endSize=6;strokeWidth=1;fontSize=16;rounded=0;endArrow=none;" parent="1" source="303ed1de8c2c98b4-72" target="303ed1de8c2c98b4-3" edge="1">
          <mxGeometry relative="1" as="geometry"/>
        </mxCell>
        <mxCell id="303ed1de8c2c98b4-78" style="edgeStyle=orthogonalEdgeStyle;html=1;startSize=6;endFill=0;endSize=6;strokeWidth=1;fontSize=16;rounded=0;endArrow=none;" parent="1" source="303ed1de8c2c98b4-2" target="303ed1de8c2c98b4-3" edge="1">
          <mxGeometry relative="1" as="geometry"/>
        </mxCell>
        <mxCell id="JUZL8q4CHkx2MLNB7XF1-11" value="Servers" style="whiteSpace=wrap;html=1;rounded=1;shadow=1;strokeWidth=1;fontSize=16;align=center;fillColor=#f5f5f5;strokeColor=#666666;" parent="1" vertex="1">
          <mxGeometry x="1043" y="340" width="370" height="40" as="geometry"/>
        </mxCell>
        <mxCell id="JUZL8q4CHkx2MLNB7XF1-60" style="edgeStyle=orthogonalEdgeStyle;rounded=0;orthogonalLoop=1;jettySize=auto;html=1;exitX=0.5;exitY=1;exitDx=0;exitDy=0;entryX=0.5;entryY=0;entryDx=0;entryDy=0;endArrow=none;endFill=0;" parent="1" source="JUZL8q4CHkx2MLNB7XF1-14" target="303ed1de8c2c98b4-7" edge="1">
          <mxGeometry relative="1" as="geometry"/>
        </mxCell>
        <mxCell id="JUZL8q4CHkx2MLNB7XF1-14" value="OS" style="whiteSpace=wrap;html=1;rounded=1;shadow=1;strokeWidth=1;fontSize=16;align=center;fillColor=#f5f5f5;strokeColor=#666666;" parent="1" vertex="1">
          <mxGeometry x="1090.5" y="400" width="275" height="40" as="geometry"/>
        </mxCell>
        <mxCell id="JUZL8q4CHkx2MLNB7XF1-21" style="edgeStyle=orthogonalEdgeStyle;rounded=0;orthogonalLoop=1;jettySize=auto;html=1;exitX=0.5;exitY=1;exitDx=0;exitDy=0;entryX=0.5;entryY=0;entryDx=0;entryDy=0;endArrow=none;endFill=0;" parent="1" source="JUZL8q4CHkx2MLNB7XF1-19" target="303ed1de8c2c98b4-6" edge="1">
          <mxGeometry relative="1" as="geometry"/>
        </mxCell>
        <mxCell id="JUZL8q4CHkx2MLNB7XF1-22" style="edgeStyle=orthogonalEdgeStyle;rounded=0;orthogonalLoop=1;jettySize=auto;html=1;exitX=0.5;exitY=1;exitDx=0;exitDy=0;entryX=0.5;entryY=0;entryDx=0;entryDy=0;endArrow=none;endFill=0;" parent="1" source="JUZL8q4CHkx2MLNB7XF1-19" target="303ed1de8c2c98b4-5" edge="1">
          <mxGeometry relative="1" as="geometry"/>
        </mxCell>
        <mxCell id="JUZL8q4CHkx2MLNB7XF1-23" style="edgeStyle=orthogonalEdgeStyle;rounded=0;orthogonalLoop=1;jettySize=auto;html=1;exitX=0.5;exitY=1;exitDx=0;exitDy=0;entryX=0.5;entryY=0;entryDx=0;entryDy=0;endArrow=none;endFill=0;" parent="1" source="JUZL8q4CHkx2MLNB7XF1-19" target="303ed1de8c2c98b4-8" edge="1">
          <mxGeometry relative="1" as="geometry"/>
        </mxCell>
        <mxCell id="JUZL8q4CHkx2MLNB7XF1-27" value="" style="edgeStyle=orthogonalEdgeStyle;rounded=0;orthogonalLoop=1;jettySize=auto;html=1;endArrow=none;endFill=0;" parent="1" source="JUZL8q4CHkx2MLNB7XF1-19" target="303ed1de8c2c98b4-6" edge="1">
          <mxGeometry relative="1" as="geometry"/>
        </mxCell>
        <mxCell id="JUZL8q4CHkx2MLNB7XF1-61" style="edgeStyle=orthogonalEdgeStyle;rounded=0;orthogonalLoop=1;jettySize=auto;html=1;exitX=0.5;exitY=0;exitDx=0;exitDy=0;entryX=0.5;entryY=1;entryDx=0;entryDy=0;endArrow=none;endFill=0;" parent="1" source="JUZL8q4CHkx2MLNB7XF1-19" target="JUZL8q4CHkx2MLNB7XF1-14" edge="1">
          <mxGeometry relative="1" as="geometry"/>
        </mxCell>
        <mxCell id="JUZL8q4CHkx2MLNB7XF1-65" style="edgeStyle=orthogonalEdgeStyle;rounded=0;orthogonalLoop=1;jettySize=auto;html=1;exitX=0.5;exitY=1;exitDx=0;exitDy=0;entryX=0.5;entryY=0;entryDx=0;entryDy=0;endArrow=none;endFill=0;" parent="1" source="JUZL8q4CHkx2MLNB7XF1-19" target="JUZL8q4CHkx2MLNB7XF1-62" edge="1">
          <mxGeometry relative="1" as="geometry"/>
        </mxCell>
        <mxCell id="JUZL8q4CHkx2MLNB7XF1-19" value="UNIX" style="whiteSpace=wrap;html=1;rounded=1;shadow=1;strokeWidth=1;fontSize=16;align=center;fillColor=#f8cecc;strokeColor=#b85450;" parent="1" vertex="1">
          <mxGeometry x="1323" y="520" width="465" height="50" as="geometry"/>
        </mxCell>
        <mxCell id="JUZL8q4CHkx2MLNB7XF1-28" value="App Name" style="whiteSpace=wrap;html=1;rounded=1;shadow=1;strokeWidth=1;fontSize=16;align=center;fillColor=#f5f5f5;strokeColor=#666666;" parent="1" vertex="1">
          <mxGeometry x="1408" y="690" width="290" height="70" as="geometry"/>
        </mxCell>
        <mxCell id="JUZL8q4CHkx2MLNB7XF1-53" style="edgeStyle=orthogonalEdgeStyle;rounded=0;orthogonalLoop=1;jettySize=auto;html=1;exitX=0.5;exitY=1;exitDx=0;exitDy=0;entryX=0.5;entryY=0;entryDx=0;entryDy=0;endArrow=none;endFill=0;" parent="1" source="JUZL8q4CHkx2MLNB7XF1-35" target="JUZL8q4CHkx2MLNB7XF1-52" edge="1">
          <mxGeometry relative="1" as="geometry"/>
        </mxCell>
        <mxCell id="JUZL8q4CHkx2MLNB7XF1-35" value="SCCM" style="whiteSpace=wrap;html=1;rounded=1;shadow=1;strokeWidth=1;fontSize=16;align=center;fillColor=#f5f5f5;strokeColor=#666666;" parent="1" vertex="1">
          <mxGeometry x="756" y="600" width="275" height="60" as="geometry"/>
        </mxCell>
        <mxCell id="JUZL8q4CHkx2MLNB7XF1-43" style="edgeStyle=orthogonalEdgeStyle;rounded=0;orthogonalLoop=1;jettySize=auto;html=1;exitX=0.5;exitY=0;exitDx=0;exitDy=0;entryX=0.5;entryY=1;entryDx=0;entryDy=0;endArrow=none;endFill=0;" parent="1" source="JUZL8q4CHkx2MLNB7XF1-38" target="303ed1de8c2c98b4-3" edge="1">
          <mxGeometry relative="1" as="geometry">
            <Array as="points">
              <mxPoint x="1377" y="250"/>
              <mxPoint x="1222" y="250"/>
            </Array>
          </mxGeometry>
        </mxCell>
        <mxCell id="JUZL8q4CHkx2MLNB7XF1-48" style="edgeStyle=orthogonalEdgeStyle;rounded=0;orthogonalLoop=1;jettySize=auto;html=1;exitX=0.5;exitY=1;exitDx=0;exitDy=0;entryX=0.5;entryY=0;entryDx=0;entryDy=0;endArrow=none;endFill=0;" parent="1" source="JUZL8q4CHkx2MLNB7XF1-38" target="JUZL8q4CHkx2MLNB7XF1-11" edge="1">
          <mxGeometry relative="1" as="geometry">
            <Array as="points">
              <mxPoint x="1377" y="325"/>
              <mxPoint x="1228" y="325"/>
            </Array>
          </mxGeometry>
        </mxCell>
        <mxCell id="JUZL8q4CHkx2MLNB7XF1-38" value="VRSA Database" style="whiteSpace=wrap;html=1;rounded=1;shadow=1;strokeWidth=1;fontSize=16;align=center;fillColor=#f5f5f5;strokeColor=#666666;" parent="1" vertex="1">
          <mxGeometry x="1257" y="265" width="240" height="40" as="geometry"/>
        </mxCell>
        <mxCell id="JUZL8q4CHkx2MLNB7XF1-50" style="edgeStyle=orthogonalEdgeStyle;rounded=0;orthogonalLoop=1;jettySize=auto;html=1;exitX=0.5;exitY=1;exitDx=0;exitDy=0;entryX=0.5;entryY=0;entryDx=0;entryDy=0;endArrow=none;endFill=0;" parent="1" source="JUZL8q4CHkx2MLNB7XF1-49" target="303ed1de8c2c98b4-72" edge="1">
          <mxGeometry relative="1" as="geometry"/>
        </mxCell>
        <mxCell id="JUZL8q4CHkx2MLNB7XF1-51" style="edgeStyle=orthogonalEdgeStyle;rounded=0;orthogonalLoop=1;jettySize=auto;html=1;exitX=0.5;exitY=1;exitDx=0;exitDy=0;entryX=0.5;entryY=0;entryDx=0;entryDy=0;endArrow=none;endFill=0;" parent="1" source="JUZL8q4CHkx2MLNB7XF1-49" target="303ed1de8c2c98b4-2" edge="1">
          <mxGeometry relative="1" as="geometry"/>
        </mxCell>
        <mxCell id="JUZL8q4CHkx2MLNB7XF1-49" value="VRSA" style="whiteSpace=wrap;html=1;rounded=1;shadow=1;strokeWidth=1;fontSize=16;align=center;fillColor=#f5f5f5;strokeColor=#666666;" parent="1" vertex="1">
          <mxGeometry x="1101" y="40" width="242" height="40" as="geometry"/>
        </mxCell>
        <mxCell id="JUZL8q4CHkx2MLNB7XF1-57" style="edgeStyle=orthogonalEdgeStyle;rounded=0;orthogonalLoop=1;jettySize=auto;html=1;exitX=0.5;exitY=1;exitDx=0;exitDy=0;endArrow=none;endFill=0;" parent="1" source="JUZL8q4CHkx2MLNB7XF1-52" target="JUZL8q4CHkx2MLNB7XF1-54" edge="1">
          <mxGeometry relative="1" as="geometry"/>
        </mxCell>
        <mxCell id="JUZL8q4CHkx2MLNB7XF1-58" style="edgeStyle=orthogonalEdgeStyle;rounded=0;orthogonalLoop=1;jettySize=auto;html=1;exitX=0.5;exitY=1;exitDx=0;exitDy=0;entryX=0.5;entryY=0;entryDx=0;entryDy=0;endArrow=none;endFill=0;" parent="1" source="JUZL8q4CHkx2MLNB7XF1-52" target="JUZL8q4CHkx2MLNB7XF1-55" edge="1">
          <mxGeometry relative="1" as="geometry">
            <Array as="points">
              <mxPoint x="894" y="765"/>
            </Array>
          </mxGeometry>
        </mxCell>
        <mxCell id="JUZL8q4CHkx2MLNB7XF1-59" style="edgeStyle=orthogonalEdgeStyle;rounded=0;orthogonalLoop=1;jettySize=auto;html=1;exitX=0.5;exitY=1;exitDx=0;exitDy=0;entryX=0.5;entryY=0;entryDx=0;entryDy=0;endArrow=none;endFill=0;" parent="1" source="JUZL8q4CHkx2MLNB7XF1-52" target="JUZL8q4CHkx2MLNB7XF1-56" edge="1">
          <mxGeometry relative="1" as="geometry"/>
        </mxCell>
        <mxCell id="JUZL8q4CHkx2MLNB7XF1-52" value="Packages" style="whiteSpace=wrap;html=1;rounded=1;shadow=1;strokeWidth=1;fontSize=16;align=center;fillColor=#f5f5f5;strokeColor=#666666;fontColor=#333333;" parent="1" vertex="1">
          <mxGeometry x="774" y="690" width="240" height="50" as="geometry"/>
        </mxCell>
        <mxCell id="JUZL8q4CHkx2MLNB7XF1-54" value="OS Upgrades" style="whiteSpace=wrap;html=1;rounded=1;shadow=1;strokeWidth=1;fontSize=16;align=center;fillColor=#f5f5f5;strokeColor=#666666;" parent="1" vertex="1">
          <mxGeometry x="630" y="790" width="150" height="60" as="geometry"/>
        </mxCell>
        <mxCell id="JUZL8q4CHkx2MLNB7XF1-55" value="Applications" style="whiteSpace=wrap;html=1;rounded=1;shadow=1;strokeWidth=1;fontSize=16;align=center;fillColor=#f5f5f5;strokeColor=#666666;" parent="1" vertex="1">
          <mxGeometry x="819" y="790" width="149" height="60" as="geometry"/>
        </mxCell>
        <mxCell id="JUZL8q4CHkx2MLNB7XF1-56" value="Service Updates" style="whiteSpace=wrap;html=1;rounded=1;shadow=1;strokeWidth=1;fontSize=16;align=center;fillColor=#f5f5f5;strokeColor=#666666;" parent="1" vertex="1">
          <mxGeometry x="1007" y="790" width="150" height="60" as="geometry"/>
        </mxCell>
        <mxCell id="JUZL8q4CHkx2MLNB7XF1-64" style="edgeStyle=orthogonalEdgeStyle;rounded=0;orthogonalLoop=1;jettySize=auto;html=1;exitX=0.5;exitY=1;exitDx=0;exitDy=0;entryX=1;entryY=0.5;entryDx=0;entryDy=0;endArrow=none;endFill=0;" parent="1" source="JUZL8q4CHkx2MLNB7XF1-62" target="JUZL8q4CHkx2MLNB7XF1-28" edge="1">
          <mxGeometry relative="1" as="geometry"/>
        </mxCell>
        <mxCell id="JUZL8q4CHkx2MLNB7XF1-62" value="All Other variants" style="whiteSpace=wrap;html=1;rounded=1;shadow=1;strokeWidth=1;fontSize=16;align=center;fillColor=#f5f5f5;strokeColor=#666666;" parent="1" vertex="1">
          <mxGeometry x="1743.5" y="610" width="133" height="40" as="geometry"/>
        </mxCell>
        <mxCell id="JUZL8q4CHkx2MLNB7XF1-66" value="Patch Deployment" style="whiteSpace=wrap;html=1;rounded=1;shadow=1;strokeWidth=1;fontSize=16;align=center;fillColor=#d5e8d4;strokeColor=#82b366;" parent="1" vertex="1">
          <mxGeometry x="973" y="1240" width="510" height="50" as="geometry"/>
        </mxCell>
      </root>
    </mxGraphModel>
  </diagram>
</mxfile>
